# xmcd
#
# Track frame offsets:
#	182
#	17652
#	30970
#	40912
#	53202
#	66405
#	79612
#	93770
#	107275
#	117967
#	126945
#	135482
#	148322
#	159632
#	167957
#	183557
#	195402
#	210857
#	222685
#	233465
#
# Disc length: 3195 seconds
#
# Revision: 1
# Processed by: cddbd v1.4PL0 Copyright (c) Steve Scherf et al.
# Submitted via: CDmax 1.9
#
DISCID=0f0c7914
DTITLE=Various Artist - 20 Handmade Instrumental Hymns
DYEAR=1993
DGENRE=Country
TTITLE0=I'll Fly Away
TTITLE1=Standing On The Promises
TTITLE2=Like A River Glorious
TTITLE3=Simple Gifts
TTITLE4=Where The Soul Never Dies
TTITLE5=Be Thou My Vision
TTITLE6=What A Friend We Have In Jesus
TTITLE7=Leaning On The Everlasting Arms
TTITLE8=Church In The Wildwood
TTITLE9=Shall We Gather At The River
TTITLE10=A New Name In Glory
TTITLE11=Poor Wayfaring Stranger
TTITLE12=Just A Closer Walk With Thee
TTITLE13=How Marvelous Is The Savior's Love
TTITLE14=Day By Day
TTITLE15=Let All Things Now Living
TTITLE16=Come Thou Fount Of Every Blessing
TTITLE17=Let Us Break Bread Together
TTITLE18=Near To The Cross
TTITLE19=Just As I Am
EXTD=Benson Music Group - CD02173
EXTT0=
EXTT1=
EXTT2=
EXTT3=
EXTT4=
EXTT5=
EXTT6=
EXTT7=
EXTT8=
EXTT9=
EXTT10=
EXTT11=
EXTT12=
EXTT13=
EXTT14=
EXTT15=
EXTT16=
EXTT17=
EXTT18=
EXTT19=
PLAYORDER=
